<svg class="is-animate" width="350" height="350" xmlns="http://www.w3.org/2000/svg">
  <title>mirai.audio logo</title>
  <desc>copyright © 2017 0xADADA, all rights reserved.</desc>
  <style><![CDATA[
    /** animation
     *
     * To enable animation, add `is-animate` class to the root svg tag.
     */

    /* keyframes
     * ====================================================================== */
    @keyframes Yokoso-FillMaru {
      0% {
        opacity: 0;
        stroke: none;
        stroke-width: 0;
      }
      5% {
        opacity: 1;
        stroke: #000;
        stroke-width: 1;
      }
      100% {
        opacity: 1;
        stroke: #000;
        stroke-width: 50;
      }
    }

    @keyframes Yokoso-FillIn {
      0% {
        opacity: 0;
        stroke: none;
        stroke-width: 0;
      }
      100% {
        opacity: 1;
        stroke: #000;
        stroke-width: 50;
      }
    }

    @keyframes Yokoso-StrokeIn {
      0% {
        fill: none;
        opacity: 0;
        stroke: none;
        stroke-width: 0;
      }
      5% {
        opacity: 1;
        stroke: #000;
      }
      50% {
        stroke-width: 10;
      }
      100% {
        opacity: 1;
        stroke: #000;
        stroke-width: 0;
        fill: #000;
      }
    }

    /*
     * css animation
     * ====================================================================== */
    .is-animate .Yokoso {
      animation-timing-function: ease;
      animation-delay: 0;
      animation-direction: normal;
      animation-iteration-count: 1;
      animation-fill-mode: forwards;
      /* pre-animation state */
      opacity: 0;
      fill: none;
      stroke: #fff;
      stroke-width: 0;
    }

    .is-animate .Yokoso-Maru {
      animation-name: Yokoso-FillMaru;
      animation-duration: 1s;
    }

    .is-animate .Yokoso-Uroko {
      animation-name: Yokoso-FillIn;
      animation-delay: 500ms;
      animation-duration: 500ms;
    }

    .is-animate .Yokoso-Mirai {
      animation-name: Yokoso-StrokeIn;
      animation-delay: 750ms;
      animation-duration: 250ms;
    }
  ]]></style>
  <g>
    <title>background</title>
    <rect id="background" y="0" x="0" height="350" width="350" fill="none"/>
  </g>
  <g class="Yokoso-All">
    <title>mirai.audio</title>
    <g id="logo" stroke-width="50" stroke="#000" fill="none">
      <ellipse class="Yokoso Yokoso-Maru" id="maru" ry="150" rx="150" cx="175"
        cy="175"/>
      <path class="Yokoso Yokoso-Uroko" id="ukoko" stroke-miterlimit="10"
        d="m110.5,133.5l64,42.5l-64,42.5l0,-85z"/>
    </g>
    <path class="Yokoso Yokoso-Mirai" id="mirai"
      d="m276.041565,153.772507c-0.832062,0.654434 -0.521149,2.161942 0.546112,2.648331c0.492432,0.224152 0.503387,0.268509 0.448456,1.821747l-0.056091,1.591751l-3.953857,1.379105c-2.174835,0.758499 -4.524109,1.597992 -5.220825,1.865555c-0.84024,0.322861 -1.359497,0.427841 -1.54303,0.311554c-0.445068,-0.281372 -1.669128,-0.206787 -1.99826,0.122681c-1.015839,1.015305 0.282654,3.023758 2.538269,3.92746l0.624084,0.249603l-0.575928,0.537186c-1.349121,1.261337 -0.035461,5.760864 2.154388,7.379044c0.682434,0.506012 0.685455,0.621216 0.018921,0.87236c-0.291779,0.109512 -1.150452,0.43428 -1.90799,0.721268c-1.363647,0.515472 -1.387878,0.519241 -2.352692,0.198257c-0.791168,-0.262436 -1.058899,-0.279449 -1.419189,-0.088745c-1.77301,0.934647 -0.205231,3.481812 2.753906,4.476883c1.280792,0.430511 1.368927,0.904465 0.507355,2.720886c-0.813782,1.714478 -1.659698,3.017288 -2.607574,4.016144l-0.680084,0.717529l0.365509,0.810043c1.188995,2.637772 4.94516,4.541077 6.580353,3.334503c0.644409,-0.4758 1.578491,-2.254486 2.171387,-4.133209c0.234161,-0.742065 0.50647,-1.348175 0.60614,-1.348175c0.257172,0 2.38858,2.919159 3.399292,4.658157c1.482239,2.545273 2.939911,3.046967 5.555023,1.907059c2.741638,-1.193344 2.683075,-1.008865 2.798279,-8.878815l0.096344,-6.653961l0.483337,-0.052872c0.79303,-0.086838 4.214417,5.964783 6.17627,10.923157c1.708801,4.312607 3.630981,5.427399 6.285797,3.64418c3.736694,-2.509384 2.182709,-7.688675 -4.33905,-14.465363c-0.791199,-0.822296 -1.38028,-1.550201 -1.312347,-1.620041c0.417328,-0.417328 2.06192,-0.254913 4.061493,0.400269c2.813416,0.923325 3.782074,0.924637 4.697815,0.007538c2.095886,-2.096436 -1.580444,-6.017639 -5.702301,-6.083725c-0.387115,-0.005661 -1.046082,-0.071762 -1.463348,-0.145386l-0.759064,-0.134811l1.270782,-0.742996c2.968231,-1.735245 3.757477,-3.267715 2.560333,-4.967819c-0.742615,-1.055466 -3.007843,-2.777527 -4.063354,-3.089096c-0.847809,-0.249786 -0.964905,-0.554169 -0.211487,-0.549438c0.232269,0.001511 1.289612,0.216187 2.350769,0.476959c3.651794,0.898788 5.111359,0.526794 5.111359,-1.301697c0,-3.593246 -6.510437,-5.541824 -13.666687,-4.093613c-1.961853,0.397644 -2.037354,0.385193 -2.311157,-0.37085c-0.847748,-2.341324 -6.268768,-4.366608 -8.013458,-2.994629m-42.890335,-0.074615c-1.330429,0.256805 -1.562256,1.871185 -0.431992,3.001099l0.77565,0.778702l-0.055099,1.938034l-0.054764,1.937836l-4.712357,1.810196l-4.711212,1.810013l-0.714493,-0.402191c-2.643478,-1.485443 -3.987106,1.51152 -1.455795,3.245407c2.910828,1.993576 5.147202,2.121765 10.968475,0.629913l0.723206,-0.185822l0,1.43277c0,0.978851 -0.076324,1.454651 -0.24118,1.504333c-0.134018,0.039642 -1.323578,0.419174 -2.647217,0.844025l-2.40744,0.771301l-0.721298,-0.366302c-1.417999,-0.723175 -2.471588,-0.392746 -2.471588,0.774155c0,0.716949 -0.035919,0.756042 -1.013977,1.136688c-2.097763,0.817596 -2.443329,0.900681 -2.690674,0.653305c-0.453156,-0.453156 -2.037338,-0.286987 -2.390472,0.250183c-0.942154,1.437469 0.63446,3.253906 3.778275,4.354752c0.689194,0.241104 1.278336,0.456192 1.308533,0.477295c0.343658,0.236038 -2.764313,6.530289 -3.723511,7.539551c-1.036621,1.09137 -0.904449,1.617218 0.836456,3.347366c3.763351,3.735962 6.065063,3.143066 7.856918,-2.023773c0.294601,-0.848358 0.587799,-1.604935 0.653336,-1.681213c0.139725,-0.165237 1.905731,2.318695 3.442932,4.845078c1.68988,2.776215 3.342056,3.231445 6.353729,1.748444c2.173294,-1.06929 2.157639,-0.987518 1.944107,-10.412384c-0.089355,-3.953857 -0.138992,-7.211548 -0.110107,-7.239288c0.028336,-0.028351 0.337982,-0.080841 0.687317,-0.117081c0.978058,-0.10199 4.379257,6.578415 6.605988,12.977112c1.604385,4.609421 2.688797,5.434219 5.379456,4.093964c4.432877,-2.209717 3.328903,-7.179642 -3.71788,-16.734604c-0.697662,-0.945984 -1.227295,-1.786224 -1.17746,-1.865509c0.326645,-0.528717 1.261292,-0.358765 3.209961,0.58342c3.394913,1.640839 5.362427,1.238678 5.362427,-1.095139c0,-4.093613 -7.577316,-6.982498 -14.632904,-5.581467c-0.886276,0.175598 -1.650253,0.319107 -1.695953,0.319107c-0.408417,0 0.080078,-2.592484 0.51207,-2.720856c0.264359,-0.079346 1.393494,-0.417343 2.507538,-0.753403c4.799744,-1.444473 4.463669,-1.412369 7.232285,-0.698654c2.835129,0.732635 4.33963,0.069885 4.33963,-1.908936c0,-3.523376 -6.448135,-5.751434 -12.790588,-4.420227c-1.79184,0.375717 -1.750336,0.388 -2.045822,-0.61293c-0.693146,-2.352493 -5.005783,-4.537888 -7.868256,-3.984619m53.95491,9.995468c-2.755768,1.432755 -2.741302,1.429367 -2.665558,0.638947c0.066071,-0.687286 0.205811,-0.766571 2.472748,-1.410492c2.237518,-0.634369 2.31308,-0.330399 0.192596,0.772278m2.700165,1.961868c0,1.174438 -4.10498,6.425491 -5.022614,6.425491c-0.107635,0 -0.186951,-0.776062 -0.186951,-1.816452l0,-1.818314l0.819489,-0.7043c2.494293,-2.146866 4.388123,-3.045654 4.388123,-2.084549m-12.730133,1.4048c0,0.764725 -0.003754,0.770355 -2.322479,2.322464c-3.015411,2.02037 -2.80014,1.973175 -3.34021,0.740189c-0.834534,-1.907089 -0.827026,-2.048691 0.115173,-2.282822c1.5672,-0.390884 3.910461,-1.04985 4.582703,-1.289627c0.957245,-0.341766 0.964813,-0.338013 0.964813,0.509796m0,5.883591c0,0.912003 -0.145416,1.040375 -1.718231,1.540756c-0.547577,0.173706 -0.185028,-0.632538 0.777924,-1.727661c0.777924,-0.887451 0.940308,-0.853485 0.940308,0.188782m-43.588577,9.15184l0,3.849274l-1.109085,-0.570251c-0.609924,-0.313446 -1.346893,-0.76506 -1.637466,-1.003754l-0.528687,-0.434265l0.292664,-1.736206c0.161255,-0.954666 0.268677,-2.072845 0.239243,-2.484848l-0.052872,-0.748276l1.253723,-0.340805c0.689194,-0.186951 1.31987,-0.349335 1.3992,-0.360306c0.079269,-0.011307 0.145355,1.710693 0.145355,3.829239m43.652969,1.42749l0.115173,3.06073l-0.557007,-0.113266c-0.305878,-0.062302 -1.127258,-0.370087 -1.823975,-0.685425l-1.265076,-0.57402l-0.001923,-0.832687c0,-0.475815 -0.205841,-1.268829 -0.4758,-1.85228c-0.402222,-0.862915 -0.430481,-1.038528 -0.18692,-1.132935c0.273743,-0.105743 4.016174,-0.978104 4.063354,-0.947861c0.013214,0.007553 0.073608,1.389709 0.135925,3.073959" fill-rule="evenodd" style=""/>
  </g>
</svg>

