<?xml version="1.0" standalone="no"?>
<!DOCTYPE svg PUBLIC "-//W3C//DTD SVG 20010904//EN"
 "http://www.w3.org/TR/2001/REC-SVG-20010904/DTD/svg10.dtd">
<svg version="1.0" xmlns="http://www.w3.org/2000/svg"
 width="16.000000pt" height="16.000000pt" viewBox="0 0 16.000000 16.000000"
 preserveAspectRatio="xMidYMid meet">
<metadata>
Created by potrace 1.11, written by Peter Selinger 2001-2013
</metadata>
<g transform="translate(0.000000,16.000000) scale(0.002286,-0.002286)"
fill="#000000" stroke="none">
<path d="M3299 6996 c-2 -2 -42 -6 -89 -9 -98 -7 -223 -22 -295 -37 -27 -5
-63 -12 -80 -15 -75 -13 -98 -18 -225 -51 -320 -83 -629 -214 -915 -387 -328
-199 -572 -405 -859 -727 -202 -226 -443 -621 -573 -940 -106 -258 -207 -633
-230 -850 -2 -25 -6 -56 -8 -70 -26 -148 -26 -719 0 -820 2 -8 6 -40 10 -71 3
-31 8 -67 11 -80 2 -13 7 -40 10 -59 3 -19 7 -42 9 -50 2 -8 7 -30 10 -48 12
-71 76 -303 113 -412 54 -157 91 -248 158 -387 544 -1121 1635 -1871 2869
-1971 177 -14 569 -7 700 13 17 2 48 7 70 9 264 32 593 123 878 243 122 51
339 160 395 198 20 14 40 25 43 25 13 0 263 172 354 243 159 124 386 340 490
467 21 25 41 47 44 50 4 3 45 55 91 115 406 534 651 1167 708 1830 14 164 6
628 -13 720 -2 11 -7 40 -10 65 -3 25 -7 54 -9 65 -2 11 -11 61 -21 110 -138
740 -535 1438 -1106 1944 -133 118 -142 126 -241 199 -359 266 -762 461 -1178
571 -109 29 -226 55 -287 65 -33 5 -116 19 -123 21 -3 1 -41 5 -85 10 -44 4
-89 10 -100 11 -28 5 -512 14 -516 10z m546 -1021 c447 -68 812 -220 1165
-484 133 -99 355 -317 452 -442 217 -280 375 -601 458 -928 26 -104 62 -283
57 -288 -1 -1 -27 7 -57 17 -53 18 -161 20 -211 5 -12 -4 -23 1 -31 15 -29 48
-151 81 -165 45 -3 -9 2 -24 11 -34 9 -10 16 -31 16 -47 0 -28 -4 -31 -92 -63
-79 -29 -107 -36 -160 -40 -18 -2 -6 -35 20 -59 24 -23 28 -33 24 -69 -3 -34
2 -50 27 -87 l31 -44 -36 -12 c-19 -7 -44 -10 -54 -7 -11 3 -26 0 -34 -7 -22
-17 -3 -53 39 -73 19 -9 35 -23 35 -30 0 -20 -29 -74 -53 -100 -18 -21 -19
-26 -7 -49 15 -28 56 -61 80 -64 37 -6 49 3 76 56 26 51 30 55 41 38 45 -65
80 -108 95 -117 23 -15 95 8 109 35 6 12 13 77 14 146 2 68 6 127 10 130 11
11 40 -35 104 -164 33 -68 69 -127 78 -133 13 -6 29 -5 51 4 39 17 39 21 12
-117 -29 -142 -26 -131 -65 -256 -88 -278 -218 -528 -399 -767 -83 -110 -103
-132 -241 -270 -396 -393 -947 -652 -1495 -703 -98 -8 -383 -9 -485 0 -441 37
-897 214 -1260 486 -55 42 -113 88 -130 103 -108 97 -129 118 -125 122 5 5
322 215 1360 905 1380 916 1263 841 1278 820 8 -10 31 -26 52 -34 47 -19 46
-28 -18 -137 l-34 -59 28 -30 c70 -73 112 -70 151 9 l27 55 20 -28 c69 -94 83
-109 110 -112 35 -4 84 15 96 38 5 10 8 88 7 174 -1 86 1 156 5 156 21 0 76
-101 128 -232 16 -43 35 -87 42 -98 18 -28 60 -25 98 7 30 25 32 30 27 74 -6
45 -24 88 -65 151 -62 95 -80 127 -76 131 3 2 29 -5 59 -16 69 -25 105 -18
105 21 0 36 -31 69 -89 95 -37 17 -65 20 -144 20 -84 -1 -98 1 -93 14 3 8 6
18 6 23 0 7 92 36 140 43 13 2 41 0 62 -4 53 -12 86 2 83 36 -8 65 -61 90
-192 90 -67 0 -103 4 -103 11 0 13 -37 47 -68 63 -34 18 -90 21 -103 5 -12
-14 -3 -54 12 -54 5 0 9 -20 9 -44 0 -43 -1 -44 -47 -60 -27 -10 -70 -26 -96
-37 -26 -11 -52 -17 -57 -14 -22 14 -49 13 -54 -2 -11 -28 4 -51 48 -73 44
-21 92 -22 174 -4 32 7 33 6 30 -22 -3 -25 -10 -31 -53 -45 -33 -11 -58 -13
-73 -7 -27 9 -42 3 -42 -16 0 -16 -45 -35 -80 -34 -14 0 -30 -1 -36 -3 -11 -4
-348 218 -1956 1287 l-709 471 69 64 c38 35 88 80 112 99 24 19 48 40 54 45 6
6 21 17 33 25 11 8 51 36 88 63 36 26 68 47 70 47 2 0 24 14 49 31 77 52 305
164 421 206 160 60 312 102 420 118 22 4 47 8 55 10 19 5 96 15 185 25 120 12
451 4 570 -15z m-2137 -3347 l-3 -872 -99 114 c-177 206 -335 468 -431 714
-41 104 -91 259 -101 316 -3 14 -10 43 -16 65 -5 22 -11 49 -13 60 -1 11 -11
72 -20 135 -19 124 -26 428 -13 580 45 515 272 1030 630 1432 l63 70 3 -871
c1 -479 1 -1263 0 -1743z m4245 1117 c35 0 37 -1 38 -35 1 -19 3 -67 5 -106
l3 -72 -39 19 c-22 11 -43 19 -47 18 -4 -1 -17 -1 -28 0 l-20 2 20 15 c11 9
28 21 38 28 32 24 29 55 -7 90 -18 17 -41 36 -52 43 -16 10 -14 11 16 5 19 -4
52 -7 73 -7z m-194 -9 c-2 -2 -19 -11 -36 -20 -28 -14 -33 -14 -33 -2 0 8 8
17 18 19 22 6 57 8 51 3z m35 -58 c-28 -47 -68 -99 -83 -107 -16 -9 -18 -6
-19 22 -1 25 6 39 36 64 37 32 81 46 66 21z m-254 -22 c0 -15 -97 -82 -106
-74 -3 3 -6 18 -7 34 -2 25 2 29 43 40 61 16 70 16 70 0z m0 -120 c0 -7 -9
-16 -19 -19 -17 -4 -18 -2 -8 14 14 22 27 25 27 5z m412 -98 l47 -11 -4 -51
c-2 -28 -4 -69 -4 -91 l-2 -40 -15 34 c-13 31 -44 72 -103 140 -39 44 -34 46
81 19z m-1282 -84 l0 -76 -32 21 c-18 11 -32 24 -31 28 0 5 3 26 4 48 3 42 13
55 42 55 15 0 17 -10 17 -76z m871 4 c0 -18 2 -43 3 -56 2 -13 -1 -25 -5 -28
-15 -9 -69 26 -71 46 -4 49 -2 54 22 61 45 13 50 10 51 -23z"/>
</g>
</svg>
